<svg width="482" height="37" viewBox="0 0 482 37" fill="none" xmlns="http://www.w3.org/2000/svg">
<path d="M30.8295 12.4432H25.5114C25.3068 11.3068 24.9261 10.3068 24.3693 9.44318C23.8125 8.57955 23.1307 7.84659 22.3239 7.24432C21.517 6.64204 20.6136 6.1875 19.6136 5.88068C18.625 5.57386 17.5739 5.42045 16.4602 5.42045C14.4489 5.42045 12.6477 5.92614 11.0568 6.9375C9.47727 7.94886 8.22727 9.43182 7.30682 11.3864C6.39773 13.3409 5.94318 15.7273 5.94318 18.5455C5.94318 21.3864 6.39773 23.7841 7.30682 25.7386C8.22727 27.6932 9.48295 29.1705 11.0739 30.1705C12.6648 31.1705 14.4545 31.6705 16.4432 31.6705C17.5455 31.6705 18.5909 31.5227 19.5795 31.2273C20.5795 30.9205 21.483 30.4716 22.2898 29.8807C23.0966 29.2898 23.7784 28.5682 24.3352 27.7159C24.9034 26.8523 25.2955 25.8636 25.5114 24.75L30.8295 24.767C30.5455 26.483 29.9943 28.0625 29.1761 29.5057C28.3693 30.9375 27.3295 32.1761 26.0568 33.2216C24.7955 34.2557 23.3523 35.0568 21.7273 35.625C20.1023 36.1932 18.3295 36.4773 16.4091 36.4773C13.3864 36.4773 10.6932 35.7614 8.32955 34.3295C5.96591 32.8864 4.10227 30.8239 2.73864 28.142C1.38636 25.4602 0.710227 22.2614 0.710227 18.5455C0.710227 14.8182 1.39205 11.6193 2.75568 8.94886C4.11932 6.26704 5.98295 4.21023 8.34659 2.77841C10.7102 1.33523 13.3977 0.613635 16.4091 0.613635C18.2614 0.613635 19.9886 0.880681 21.5909 1.41477C23.2045 1.9375 24.6534 2.71023 25.9375 3.73295C27.2216 4.74432 28.2841 5.98295 29.125 7.44886C29.9659 8.90341 30.5341 10.5682 30.8295 12.4432ZM37.1321 1.09091H42.348V26.7273H42.6719L60.4332 1.09091H65.3082V36H60.0412V10.3977H59.7173L41.9901 36H37.1321V1.09091ZM72.9915 36V1.09091H78.2585V16.2614H95.6619V1.09091H100.946V36H95.6619V20.7784H78.2585V36H72.9915ZM106.895 5.625V1.09091H133.912V5.625H123.02V36H117.77V5.625H106.895ZM139.882 36V1.09091H161.768V5.625H145.149V16.2614H160.626V20.7784H145.149V31.4659H161.973V36H139.882ZM180.48 36.4773C178.139 36.4773 176.048 36.0739 174.207 35.267C172.378 34.4602 170.929 33.3409 169.861 31.9091C168.804 30.4659 168.236 28.7955 168.156 26.8977H173.509C173.577 27.9318 173.923 28.8295 174.548 29.5909C175.185 30.3409 176.014 30.9205 177.037 31.3295C178.06 31.7386 179.196 31.9432 180.446 31.9432C181.821 31.9432 183.037 31.7045 184.094 31.2273C185.162 30.75 185.997 30.0852 186.599 29.233C187.202 28.3693 187.503 27.375 187.503 26.25C187.503 25.0795 187.202 24.0511 186.599 23.1648C186.009 22.267 185.139 21.5625 183.991 21.0511C182.855 20.5398 181.48 20.2841 179.866 20.2841H176.918V15.9886H179.866C181.162 15.9886 182.298 15.7557 183.276 15.2898C184.264 14.8239 185.037 14.1761 185.594 13.3466C186.151 12.5057 186.429 11.5227 186.429 10.3977C186.429 9.31818 186.185 8.38068 185.696 7.58523C185.219 6.77841 184.537 6.14773 183.651 5.69318C182.776 5.23864 181.741 5.01136 180.548 5.01136C179.412 5.01136 178.349 5.22159 177.361 5.64205C176.384 6.05114 175.588 6.64205 174.974 7.41477C174.361 8.17614 174.031 9.09091 173.986 10.1591H168.889C168.946 8.27273 169.503 6.61364 170.56 5.18182C171.628 3.75 173.037 2.63068 174.787 1.82386C176.537 1.01704 178.48 0.613635 180.616 0.613635C182.855 0.613635 184.787 1.05114 186.412 1.92614C188.048 2.78977 189.31 3.94318 190.196 5.38636C191.094 6.82954 191.537 8.40909 191.526 10.125C191.537 12.0795 190.991 13.7386 189.889 15.1023C188.798 16.4659 187.344 17.3807 185.526 17.8466V18.1193C187.844 18.4716 189.639 19.392 190.912 20.8807C192.196 22.3693 192.832 24.2159 192.821 26.4205C192.832 28.3409 192.298 30.0625 191.219 31.5852C190.151 33.108 188.69 34.3068 186.838 35.1818C184.986 36.0455 182.866 36.4773 180.48 36.4773ZM202.69 36H197.099L209.662 1.09091H215.747L228.31 36H222.719L212.849 7.43182H212.577L202.69 36ZM203.628 22.3295H221.764V26.7614H203.628V22.3295ZM227.504 5.625V1.09091H254.521V5.625H243.629V36H238.379V5.625H227.504ZM289.315 18.5455C289.315 22.2727 288.634 25.4773 287.27 28.1591C285.906 30.8295 284.037 32.8864 281.662 34.3295C279.298 35.7614 276.611 36.4773 273.599 36.4773C270.577 36.4773 267.878 35.7614 265.503 34.3295C263.139 32.8864 261.276 30.8239 259.912 28.142C258.548 25.4602 257.866 22.2614 257.866 18.5455C257.866 14.8182 258.548 11.6193 259.912 8.94886C261.276 6.26704 263.139 4.21023 265.503 2.77841C267.878 1.33523 270.577 0.613635 273.599 0.613635C276.611 0.613635 279.298 1.33523 281.662 2.77841C284.037 4.21023 285.906 6.26704 287.27 8.94886C288.634 11.6193 289.315 14.8182 289.315 18.5455ZM284.099 18.5455C284.099 15.7045 283.639 13.3125 282.719 11.3693C281.81 9.41477 280.56 7.9375 278.969 6.9375C277.389 5.92614 275.599 5.42045 273.599 5.42045C271.588 5.42045 269.793 5.92614 268.213 6.9375C266.634 7.9375 265.384 9.41477 264.463 11.3693C263.554 13.3125 263.099 15.7045 263.099 18.5455C263.099 21.3864 263.554 23.7841 264.463 25.7386C265.384 27.6818 266.634 29.1591 268.213 30.1705C269.793 31.1705 271.588 31.6705 273.599 31.6705C275.599 31.6705 277.389 31.1705 278.969 30.1705C280.56 29.1591 281.81 27.6818 282.719 25.7386C283.639 23.7841 284.099 21.3864 284.099 18.5455ZM295.882 36V1.09091H308.325C311.041 1.09091 313.291 1.58523 315.075 2.57386C316.859 3.5625 318.195 4.91477 319.081 6.63068C319.967 8.33523 320.411 10.2557 320.411 12.392C320.411 14.5398 319.962 16.4716 319.064 18.1875C318.178 19.892 316.837 21.2443 315.041 22.2443C313.257 23.233 311.013 23.7273 308.308 23.7273H299.751V19.2614H307.831C309.547 19.2614 310.939 18.9659 312.007 18.375C313.075 17.7727 313.859 16.9545 314.359 15.9205C314.859 14.8864 315.109 13.7102 315.109 12.392C315.109 11.0739 314.859 9.90341 314.359 8.88068C313.859 7.85795 313.07 7.05682 311.99 6.47727C310.922 5.89773 309.513 5.60795 307.763 5.60795H301.149V36H295.882ZM339.288 36V1.09091H352.072C354.55 1.09091 356.601 1.5 358.226 2.31818C359.851 3.125 361.067 4.22159 361.874 5.60795C362.68 6.98295 363.084 8.53409 363.084 10.2614C363.084 11.7159 362.817 12.9432 362.283 13.9432C361.749 14.9318 361.033 15.7273 360.135 16.3295C359.249 16.9205 358.271 17.3523 357.203 17.625V17.9659C358.362 18.0227 359.493 18.3977 360.595 19.0909C361.709 19.7727 362.629 20.7443 363.357 22.0057C364.084 23.267 364.447 24.8011 364.447 26.608C364.447 28.392 364.027 29.9943 363.186 31.4148C362.357 32.8239 361.072 33.9432 359.334 34.7727C357.595 35.5909 355.374 36 352.669 36H339.288ZM344.555 31.483H352.158C354.68 31.483 356.487 30.9943 357.578 30.017C358.669 29.0398 359.214 27.8182 359.214 26.3523C359.214 25.25 358.936 24.2386 358.379 23.3182C357.822 22.3977 357.027 21.6648 355.993 21.1193C354.97 20.5739 353.754 20.3011 352.345 20.3011H344.555V31.483ZM344.555 16.1932H351.612C352.794 16.1932 353.857 15.9659 354.8 15.5114C355.754 15.0568 356.51 14.4205 357.067 13.6023C357.635 12.7727 357.919 11.7955 357.919 10.6705C357.919 9.22727 357.413 8.01705 356.402 7.03977C355.391 6.0625 353.839 5.57386 351.749 5.57386H344.555V16.1932ZM368.001 1.09091H373.984L383.104 16.9602H383.479L392.598 1.09091H398.581L385.916 22.2955V36H380.666V22.2955L368.001 1.09091ZM416.257 1.09091H422.649L433.763 28.2273H434.172L445.286 1.09091H451.678V36H446.666V10.7386H446.342L436.047 35.9489H431.888L421.592 10.7216H421.268V36H416.257V1.09091ZM459.335 36V1.09091H481.222V5.625H464.602V16.2614H480.08V20.7784H464.602V31.4659H481.426V36H459.335Z" fill="white"/>
</svg>
